<svg width="132" height="126" viewBox="0 0 132 126" fill="none" xmlns="http://www.w3.org/2000/svg">
<mask id="path-1-outside-1_1009_5509" maskUnits="userSpaceOnUse" x="4" y="0" width="123" height="123" fill="black">
<rect fill="white" x="4" width="123" height="123"/>
<path d="M62.4065 7.39228C63.2355 4.20257 67.7645 4.20257 68.5935 7.39229C69.3303 10.2272 73.1749 10.6604 74.5241 8.0605C76.0421 5.13524 80.4576 6.14304 80.5561 9.43725C80.6436 12.3651 84.2954 13.6429 86.1893 11.4084C88.3202 8.89427 92.4007 10.8593 91.7636 14.0929C91.1974 16.9668 94.4733 19.0252 96.817 17.2681C99.4539 15.2912 102.995 18.115 101.654 21.1257C100.463 23.8015 103.198 26.5373 105.874 25.3458C108.885 24.0052 111.709 27.5461 109.732 30.183C107.975 32.5266 110.033 35.8025 112.907 35.2364C116.141 34.5993 118.106 38.6798 115.592 40.8107C113.357 42.7046 114.635 46.3564 117.563 46.4439C120.857 46.5424 121.865 50.9579 118.939 52.4759C116.34 53.8251 116.773 57.6696 119.608 58.4065C122.797 59.2355 122.797 63.7645 119.608 64.5935C116.773 65.3303 116.34 69.1749 118.939 70.5241C121.865 72.0421 120.857 76.4576 117.563 76.5561C114.635 76.6436 113.357 80.2954 115.592 82.1893C118.106 84.3202 116.141 88.4007 112.907 87.7636C110.033 87.1974 107.975 90.4733 109.732 92.817C111.709 95.4539 108.885 98.9948 105.874 97.6542C103.198 96.4627 100.463 99.1985 101.654 101.874C102.995 104.885 99.4539 107.709 96.817 105.732C94.4733 103.975 91.1974 106.033 91.7636 108.907C92.4007 112.141 88.3202 114.106 86.1893 111.592C84.2954 109.357 80.6436 110.635 80.5561 113.563C80.4576 116.857 76.0421 117.865 74.5241 114.939C73.1749 112.34 69.3303 112.773 68.5935 115.608C67.7645 118.797 63.2355 118.797 62.4065 115.608C61.6696 112.773 57.8251 112.34 56.4759 114.939C54.9579 117.865 50.5424 116.857 50.4439 113.563C50.3564 110.635 46.7046 109.357 44.8107 111.592C42.6798 114.106 38.5993 112.141 39.2364 108.907C39.8025 106.033 36.5266 103.975 34.183 105.732C31.5461 107.709 28.0052 104.885 29.3458 101.874C30.5373 99.1985 27.8015 96.4627 25.1257 97.6542C22.115 98.9948 19.2912 95.4539 21.2681 92.817C23.0252 90.4733 20.9668 87.1974 18.0929 87.7636C14.8593 88.4007 12.8943 84.3202 15.4084 82.1893C17.6429 80.2954 16.3651 76.6436 13.4373 76.5561C10.143 76.4576 9.13524 72.0421 12.0605 70.5241C14.6604 69.1749 14.2272 65.3303 11.3923 64.5935C8.20257 63.7645 8.20257 59.2355 11.3923 58.4065C14.2272 57.6696 14.6604 53.8251 12.0605 52.4759C9.13524 50.9579 10.143 46.5424 13.4373 46.4439C16.3651 46.3564 17.6429 42.7046 15.4084 40.8107C12.8943 38.6798 14.8593 34.5993 18.0929 35.2364C20.9668 35.8025 23.0252 32.5266 21.2681 30.183C19.2912 27.5461 22.115 24.0052 25.1257 25.3458C27.8015 26.5373 30.5373 23.8015 29.3458 21.1257C28.0052 18.115 31.5461 15.2912 34.183 17.2681C36.5266 19.0252 39.8025 16.9668 39.2364 14.0929C38.5993 10.8593 42.6798 8.89427 44.8107 11.4084C46.7046 13.6429 50.3564 12.3651 50.4439 9.43725C50.5424 6.14304 54.9579 5.13524 56.4759 8.0605C57.8251 10.6604 61.6696 10.2272 62.4065 7.39228Z"/>
</mask>
<path d="M62.4065 7.39228C63.2355 4.20257 67.7645 4.20257 68.5935 7.39229C69.3303 10.2272 73.1749 10.6604 74.5241 8.0605C76.0421 5.13524 80.4576 6.14304 80.5561 9.43725C80.6436 12.3651 84.2954 13.6429 86.1893 11.4084C88.3202 8.89427 92.4007 10.8593 91.7636 14.0929C91.1974 16.9668 94.4733 19.0252 96.817 17.2681C99.4539 15.2912 102.995 18.115 101.654 21.1257C100.463 23.8015 103.198 26.5373 105.874 25.3458C108.885 24.0052 111.709 27.5461 109.732 30.183C107.975 32.5266 110.033 35.8025 112.907 35.2364C116.141 34.5993 118.106 38.6798 115.592 40.8107C113.357 42.7046 114.635 46.3564 117.563 46.4439C120.857 46.5424 121.865 50.9579 118.939 52.4759C116.34 53.8251 116.773 57.6696 119.608 58.4065C122.797 59.2355 122.797 63.7645 119.608 64.5935C116.773 65.3303 116.34 69.1749 118.939 70.5241C121.865 72.0421 120.857 76.4576 117.563 76.5561C114.635 76.6436 113.357 80.2954 115.592 82.1893C118.106 84.3202 116.141 88.4007 112.907 87.7636C110.033 87.1974 107.975 90.4733 109.732 92.817C111.709 95.4539 108.885 98.9948 105.874 97.6542C103.198 96.4627 100.463 99.1985 101.654 101.874C102.995 104.885 99.4539 107.709 96.817 105.732C94.4733 103.975 91.1974 106.033 91.7636 108.907C92.4007 112.141 88.3202 114.106 86.1893 111.592C84.2954 109.357 80.6436 110.635 80.5561 113.563C80.4576 116.857 76.0421 117.865 74.5241 114.939C73.1749 112.34 69.3303 112.773 68.5935 115.608C67.7645 118.797 63.2355 118.797 62.4065 115.608C61.6696 112.773 57.8251 112.34 56.4759 114.939C54.9579 117.865 50.5424 116.857 50.4439 113.563C50.3564 110.635 46.7046 109.357 44.8107 111.592C42.6798 114.106 38.5993 112.141 39.2364 108.907C39.8025 106.033 36.5266 103.975 34.183 105.732C31.5461 107.709 28.0052 104.885 29.3458 101.874C30.5373 99.1985 27.8015 96.4627 25.1257 97.6542C22.115 98.9948 19.2912 95.4539 21.2681 92.817C23.0252 90.4733 20.9668 87.1974 18.0929 87.7636C14.8593 88.4007 12.8943 84.3202 15.4084 82.1893C17.6429 80.2954 16.3651 76.6436 13.4373 76.5561C10.143 76.4576 9.13524 72.0421 12.0605 70.5241C14.6604 69.1749 14.2272 65.3303 11.3923 64.5935C8.20257 63.7645 8.20257 59.2355 11.3923 58.4065C14.2272 57.6696 14.6604 53.8251 12.0605 52.4759C9.13524 50.9579 10.143 46.5424 13.4373 46.4439C16.3651 46.3564 17.6429 42.7046 15.4084 40.8107C12.8943 38.6798 14.8593 34.5993 18.0929 35.2364C20.9668 35.8025 23.0252 32.5266 21.2681 30.183C19.2912 27.5461 22.115 24.0052 25.1257 25.3458C27.8015 26.5373 30.5373 23.8015 29.3458 21.1257C28.0052 18.115 31.5461 15.2912 34.183 17.2681C36.5266 19.0252 39.8025 16.9668 39.2364 14.0929C38.5993 10.8593 42.6798 8.89427 44.8107 11.4084C46.7046 13.6429 50.3564 12.3651 50.4439 9.43725C50.5424 6.14304 54.9579 5.13524 56.4759 8.0605C57.8251 10.6604 61.6696 10.2272 62.4065 7.39228Z" fill="url(#paint0_linear_1009_5509)"/>
<path d="M62.4065 7.39228C63.2355 4.20257 67.7645 4.20257 68.5935 7.39229C69.3303 10.2272 73.1749 10.6604 74.5241 8.0605C76.0421 5.13524 80.4576 6.14304 80.5561 9.43725C80.6436 12.3651 84.2954 13.6429 86.1893 11.4084C88.3202 8.89427 92.4007 10.8593 91.7636 14.0929C91.1974 16.9668 94.4733 19.0252 96.817 17.2681C99.4539 15.2912 102.995 18.115 101.654 21.1257C100.463 23.8015 103.198 26.5373 105.874 25.3458C108.885 24.0052 111.709 27.5461 109.732 30.183C107.975 32.5266 110.033 35.8025 112.907 35.2364C116.141 34.5993 118.106 38.6798 115.592 40.8107C113.357 42.7046 114.635 46.3564 117.563 46.4439C120.857 46.5424 121.865 50.9579 118.939 52.4759C116.34 53.8251 116.773 57.6696 119.608 58.4065C122.797 59.2355 122.797 63.7645 119.608 64.5935C116.773 65.3303 116.34 69.1749 118.939 70.5241C121.865 72.0421 120.857 76.4576 117.563 76.5561C114.635 76.6436 113.357 80.2954 115.592 82.1893C118.106 84.3202 116.141 88.4007 112.907 87.7636C110.033 87.1974 107.975 90.4733 109.732 92.817C111.709 95.4539 108.885 98.9948 105.874 97.6542C103.198 96.4627 100.463 99.1985 101.654 101.874C102.995 104.885 99.4539 107.709 96.817 105.732C94.4733 103.975 91.1974 106.033 91.7636 108.907C92.4007 112.141 88.3202 114.106 86.1893 111.592C84.2954 109.357 80.6436 110.635 80.5561 113.563C80.4576 116.857 76.0421 117.865 74.5241 114.939C73.1749 112.34 69.3303 112.773 68.5935 115.608C67.7645 118.797 63.2355 118.797 62.4065 115.608C61.6696 112.773 57.8251 112.34 56.4759 114.939C54.9579 117.865 50.5424 116.857 50.4439 113.563C50.3564 110.635 46.7046 109.357 44.8107 111.592C42.6798 114.106 38.5993 112.141 39.2364 108.907C39.8025 106.033 36.5266 103.975 34.183 105.732C31.5461 107.709 28.0052 104.885 29.3458 101.874C30.5373 99.1985 27.8015 96.4627 25.1257 97.6542C22.115 98.9948 19.2912 95.4539 21.2681 92.817C23.0252 90.4733 20.9668 87.1974 18.0929 87.7636C14.8593 88.4007 12.8943 84.3202 15.4084 82.1893C17.6429 80.2954 16.3651 76.6436 13.4373 76.5561C10.143 76.4576 9.13524 72.0421 12.0605 70.5241C14.6604 69.1749 14.2272 65.3303 11.3923 64.5935C8.20257 63.7645 8.20257 59.2355 11.3923 58.4065C14.2272 57.6696 14.6604 53.8251 12.0605 52.4759C9.13524 50.9579 10.143 46.5424 13.4373 46.4439C16.3651 46.3564 17.6429 42.7046 15.4084 40.8107C12.8943 38.6798 14.8593 34.5993 18.0929 35.2364C20.9668 35.8025 23.0252 32.5266 21.2681 30.183C19.2912 27.5461 22.115 24.0052 25.1257 25.3458C27.8015 26.5373 30.5373 23.8015 29.3458 21.1257C28.0052 18.115 31.5461 15.2912 34.183 17.2681C36.5266 19.0252 39.8025 16.9668 39.2364 14.0929C38.5993 10.8593 42.6798 8.89427 44.8107 11.4084C46.7046 13.6429 50.3564 12.3651 50.4439 9.43725C50.5424 6.14304 54.9579 5.13524 56.4759 8.0605C57.8251 10.6604 61.6696 10.2272 62.4065 7.39228Z" stroke="white" stroke-width="10" mask="url(#path-1-outside-1_1009_5509)"/>
<path d="M62.4065 7.39228C63.2355 4.20257 67.7645 4.20257 68.5935 7.39229V7.39229C69.3304 10.2272 73.1749 10.6604 74.5241 8.0605V8.0605C76.0421 5.13524 80.4576 6.14304 80.5561 9.43726V9.43726C80.6436 12.3651 84.2954 13.6429 86.1893 11.4084V11.4084C88.3202 8.89427 92.4007 10.8593 91.7636 14.0929V14.0929C91.1974 16.9668 94.4733 19.0252 96.817 17.2681V17.2681C99.4539 15.2912 102.995 18.115 101.654 21.1257V21.1257C100.463 23.8015 103.198 26.5373 105.874 25.3458V25.3458C108.885 24.0052 111.709 27.5461 109.732 30.183V30.183C107.975 32.5266 110.033 35.8026 112.907 35.2364V35.2364C116.141 34.5993 118.106 38.6798 115.592 40.8107V40.8107C113.357 42.7046 114.635 46.3564 117.563 46.4439V46.4439C120.857 46.5424 121.865 50.9579 118.939 52.4759V52.4759C116.34 53.8251 116.773 57.6696 119.608 58.4065V58.4065C122.797 59.2355 122.797 63.7645 119.608 64.5935V64.5935C116.773 65.3304 116.34 69.1749 118.939 70.5241V70.5241C121.865 72.0421 120.857 76.4576 117.563 76.5561V76.5561C114.635 76.6436 113.357 80.2954 115.592 82.1893V82.1893C118.106 84.3202 116.141 88.4007 112.907 87.7636V87.7636C110.033 87.1974 107.975 90.4733 109.732 92.817V92.817C111.709 95.4539 108.885 98.9948 105.874 97.6542V97.6542C103.198 96.4627 100.463 99.1985 101.654 101.874V101.874C102.995 104.885 99.4539 107.709 96.817 105.732V105.732C94.4733 103.975 91.1974 106.033 91.7636 108.907V108.907C92.4007 112.141 88.3202 114.106 86.1893 111.592V111.592C84.2954 109.357 80.6436 110.635 80.5561 113.563V113.563C80.4576 116.857 76.0421 117.865 74.5241 114.939V114.939C73.1749 112.34 69.3304 112.773 68.5935 115.608V115.608C67.7645 118.797 63.2355 118.797 62.4065 115.608V115.608C61.6696 112.773 57.8251 112.34 56.4759 114.939V114.939C54.9579 117.865 50.5424 116.857 50.4439 113.563V113.563C50.3564 110.635 46.7046 109.357 44.8107 111.592V111.592C42.6798 114.106 38.5993 112.141 39.2364 108.907V108.907C39.8026 106.033 36.5266 103.975 34.183 105.732V105.732C31.5461 107.709 28.0052 104.885 29.3458 101.874V101.874C30.5373 99.1985 27.8015 96.4627 25.1257 97.6542V97.6542C22.115 98.9948 19.2912 95.4539 21.2681 92.817V92.817C23.0252 90.4733 20.9668 87.1974 18.0929 87.7636V87.7636C14.8593 88.4007 12.8943 84.3202 15.4084 82.1893V82.1893C17.6429 80.2954 16.3651 76.6436 13.4373 76.5561V76.5561C10.143 76.4576 9.13524 72.0421 12.0605 70.5241V70.5241C14.6604 69.1749 14.2272 65.3304 11.3923 64.5935V64.5935C8.20257 63.7645 8.20257 59.2355 11.3923 58.4065V58.4065C14.2272 57.6696 14.6604 53.8251 12.0605 52.4759V52.4759C9.13524 50.9579 10.143 46.5424 13.4373 46.4439V46.4439C16.3651 46.3564 17.6429 42.7046 15.4084 40.8107V40.8107C12.8943 38.6798 14.8593 34.5993 18.0929 35.2364V35.2364C20.9668 35.8026 23.0252 32.5266 21.2681 30.183V30.183C19.2912 27.5461 22.115 24.0052 25.1257 25.3458V25.3458C27.8015 26.5373 30.5373 23.8015 29.3458 21.1257V21.1257C28.0052 18.115 31.5461 15.2912 34.183 17.2681V17.2681C36.5266 19.0252 39.8026 16.9668 39.2364 14.0929V14.0929C38.5993 10.8593 42.6798 8.89427 44.8107 11.4084V11.4084C46.7046 13.6429 50.3564 12.3651 50.4439 9.43725V9.43725C50.5424 6.14304 54.9579 5.13524 56.4759 8.0605V8.0605C57.8251 10.6604 61.6696 10.2272 62.4065 7.39228V7.39228Z" fill="url(#paint1_linear_1009_5509)"/>
<g filter="url(#filter0_ddd_1009_5509)">
<path fill-rule="evenodd" clip-rule="evenodd" d="M62.3672 63.5565C62.9707 63.5565 63.4599 64.0457 63.4599 64.6492C63.4599 65.8562 64.4384 66.8346 65.6453 66.8346C66.8523 66.8346 67.8307 65.8562 67.8307 64.6492C67.8307 64.0457 68.3199 63.5565 68.9234 63.5565C69.5269 63.5565 70.0161 64.0457 70.0161 64.6492C70.0161 67.0631 68.0592 69.02 65.6453 69.02C63.2314 69.02 61.2745 67.0631 61.2745 64.6492C61.2745 64.0457 61.7638 63.5565 62.3672 63.5565Z" fill="white"/>
<path d="M55.2647 54.6783L55.8965 56.2802C56.4546 57.6952 57.5726 58.8146 58.9841 59.3712L60.5916 60.0052L58.984 60.6392C57.5726 61.1959 56.4546 62.3152 55.8965 63.7303L55.2647 65.3321L54.633 63.7303C54.0749 62.3152 52.9568 61.1959 51.5454 60.6392L49.9379 60.0052L51.5454 59.3712C52.9568 58.8146 54.0749 57.6952 54.633 56.2802L55.2647 54.6783Z" fill="white"/>
<path d="M76.2991 54.6783L76.9308 56.2802C77.4889 57.6952 78.607 58.8146 80.0184 59.3712L81.6259 60.0052L80.0184 60.6392C78.607 61.1959 77.4889 62.3152 76.9308 63.7303L76.2991 65.3321L75.6673 63.7303C75.1092 62.3152 73.9912 61.1959 72.5797 60.6392L70.9722 60.0052L72.5797 59.3712C73.9912 58.8146 75.1092 57.6952 75.6673 56.2802L76.2991 54.6783Z" fill="white"/>
</g>
<path fill-rule="evenodd" clip-rule="evenodd" d="M58.9338 3.22336C62.1067 -1.07445 68.8933 -1.07445 72.0662 3.22335C76.1159 -0.260663 82.7324 1.24951 84.8693 6.14559C89.5928 3.65007 95.7073 6.59467 96.7012 11.8435C101.862 10.4616 107.168 14.693 106.969 20.0314C112.307 19.8325 116.538 25.1385 115.156 30.2988C120.405 31.2927 123.35 37.4072 120.854 42.1306C125.75 44.2676 127.261 50.8841 123.777 54.9338C128.074 58.1067 128.074 64.8933 123.777 68.0662C127.261 72.1159 125.75 78.7324 120.854 80.8693C123.35 85.5928 120.405 91.7073 115.156 92.7012C116.538 97.8615 112.307 103.168 106.969 102.969C107.168 108.307 101.862 112.538 96.7012 111.156C95.7073 116.405 89.5928 119.35 84.8693 116.854C82.7324 121.75 76.1159 123.261 72.0662 119.777C68.8933 124.074 62.1067 124.074 58.9338 119.777C54.8841 123.261 48.2676 121.75 46.1306 116.854C41.4072 119.35 35.2927 116.405 34.2988 111.156C29.1385 112.538 23.8325 108.307 24.0314 102.969C18.693 103.168 14.4616 97.8615 15.8435 92.7012C10.5947 91.7073 7.65006 85.5928 10.1456 80.8693C5.24951 78.7324 3.73934 72.1159 7.22335 68.0662C2.92555 64.8933 2.92555 58.1067 7.22336 54.9338C3.73933 50.8841 5.24951 44.2676 10.1456 42.1306C7.65006 37.4072 10.5947 31.2927 15.8435 30.2988C14.4616 25.1385 18.693 19.8325 24.0314 20.0314C23.8325 14.693 29.1385 10.4616 34.2988 11.8435C35.2927 6.59467 41.4072 3.65006 46.1306 6.14559C48.2676 1.24951 54.8841 -0.260666 58.9338 3.22336ZM68.5935 7.39229C67.7645 4.20257 63.2355 4.20257 62.4065 7.39228C61.6696 10.2272 57.8251 10.6604 56.4759 8.0605C54.9579 5.13524 50.5424 6.14304 50.4439 9.43725C50.3564 12.3651 46.7046 13.6429 44.8107 11.4084C42.6798 8.89427 38.5993 10.8593 39.2364 14.0929C39.8025 16.9668 36.5266 19.0252 34.183 17.2681C31.5461 15.2912 28.0052 18.115 29.3458 21.1257C30.5373 23.8015 27.8015 26.5373 25.1257 25.3458C22.115 24.0052 19.2912 27.5461 21.2681 30.183C23.0252 32.5266 20.9668 35.8025 18.0929 35.2364C14.8593 34.5993 12.8943 38.6798 15.4084 40.8107C17.6429 42.7046 16.3651 46.3564 13.4373 46.4439C10.143 46.5424 9.13524 50.9579 12.0605 52.4759C14.6604 53.8251 14.2272 57.6696 11.3923 58.4065C8.20257 59.2355 8.20257 63.7645 11.3923 64.5935C14.2272 65.3304 14.6604 69.1749 12.0605 70.5241C9.13524 72.0421 10.143 76.4576 13.4373 76.5561C16.3651 76.6436 17.6429 80.2954 15.4084 82.1893C12.8943 84.3202 14.8593 88.4007 18.0929 87.7636C20.9668 87.1974 23.0252 90.4733 21.2681 92.817C19.2912 95.4539 22.115 98.9948 25.1257 97.6542C27.8015 96.4627 30.5373 99.1985 29.3458 101.874C28.0052 104.885 31.5461 107.709 34.183 105.732C36.5266 103.975 39.8025 106.033 39.2364 108.907C38.5993 112.141 42.6798 114.106 44.8107 111.592C46.7046 109.357 50.3564 110.635 50.4439 113.563C50.5424 116.857 54.9579 117.865 56.4759 114.939C57.8251 112.34 61.6696 112.773 62.4065 115.608C63.2355 118.797 67.7645 118.797 68.5935 115.608C69.3304 112.773 73.1749 112.34 74.5241 114.939C76.0421 117.865 80.4576 116.857 80.5561 113.563C80.6436 110.635 84.2954 109.357 86.1893 111.592C88.3202 114.106 92.4007 112.141 91.7636 108.907C91.1974 106.033 94.4733 103.975 96.817 105.732C99.4539 107.709 102.995 104.885 101.654 101.874C100.463 99.1985 103.198 96.4627 105.874 97.6542C108.885 98.9948 111.709 95.4539 109.732 92.817C107.975 90.4733 110.033 87.1974 112.907 87.7636C116.141 88.4007 118.106 84.3202 115.592 82.1893C113.357 80.2954 114.635 76.6436 117.563 76.5561C120.857 76.4576 121.865 72.0421 118.939 70.5241C116.34 69.1749 116.773 65.3304 119.608 64.5935C122.797 63.7645 122.797 59.2355 119.608 58.4065C116.773 57.6696 116.34 53.8251 118.939 52.4759C121.865 50.9579 120.857 46.5424 117.563 46.4439C114.635 46.3564 113.357 42.7046 115.592 40.8107C118.106 38.6798 116.141 34.5993 112.907 35.2364C110.033 35.8025 107.975 32.5266 109.732 30.183C111.709 27.5461 108.885 24.0052 105.874 25.3458C103.198 26.5373 100.463 23.8015 101.654 21.1257C102.995 18.115 99.4539 15.2912 96.817 17.2681C94.4733 19.0252 91.1974 16.9668 91.7636 14.0929C92.4007 10.8593 88.3202 8.89427 86.1893 11.4084C84.2954 13.6429 80.6436 12.3651 80.5561 9.43725C80.4576 6.14304 76.0421 5.13524 74.5241 8.0605C73.1749 10.6604 69.3304 10.2272 68.5935 7.39229Z" fill="url(#paint2_linear_1009_5509)"/>
<path d="M43.1043 36.9238C42.2505 37.6665 41.296 37.5187 40.4349 36.5289L35.182 30.4907C34.3209 29.5009 34.3067 28.5351 35.1605 27.7923C36.0266 27.0389 36.9935 27.1759 37.8546 28.1657L43.1075 34.2039C43.9686 35.1937 43.9704 36.1703 43.1043 36.9238Z" fill="white"/>
<path d="M53.3973 30.7301C52.0194 31.2591 50.9646 30.8912 50.0597 29.8156L45.0166 23.8643C43.794 22.4188 44.4506 21.2005 45.4457 20.8184C46.4409 20.4363 47.1613 20.757 48.125 21.9856L51.2312 25.9578C51.6383 26.469 51.9371 26.8813 52.1547 27.2194C52.0749 26.8284 52.021 26.3221 51.9755 25.6544L51.6157 20.6454C51.5036 19.0722 51.8454 18.3612 52.764 18.0085C53.7133 17.6441 55.0471 18.0981 55.0907 19.9962L55.2499 27.8228C55.2821 29.2334 54.7599 30.2069 53.3973 30.7301Z" fill="white"/>
<path d="M64.2083 28.4683C60.7682 28.6309 58.1276 26.6049 57.9432 22.7061C57.7589 18.8073 60.1966 16.5412 63.6368 16.3786C67.0933 16.2152 69.8533 18.334 70.0329 22.1346C70.2126 25.9351 67.6649 28.3049 64.2083 28.4683ZM61.6455 22.5311C61.7431 24.5952 62.6765 25.5854 64.0689 25.5196C65.4614 25.4537 66.4283 24.3737 66.3307 22.3096C66.2323 20.2291 65.1686 19.2615 63.7762 19.3273C62.3837 19.3931 61.5472 20.4506 61.6455 22.5311Z" fill="white"/>
<path d="M74.9021 29.6252C73.8093 29.3312 73.3993 28.4566 73.7402 27.1897L75.5002 20.6491L73.5998 20.1377C72.5388 19.8522 72.0733 19.1835 72.3205 18.265C72.5677 17.3465 73.3101 16.9858 74.3711 17.2713L81.561 19.206C82.622 19.4915 83.0832 20.1761 82.836 21.0946C82.5889 22.0131 81.8507 22.358 80.7897 22.0724L78.9209 21.5696L77.1609 28.1101C76.82 29.3771 76.0106 29.9235 74.9021 29.6252Z" fill="white"/>
<path d="M81.439 31.6594C80.4661 31.0815 80.3071 30.1288 80.9771 29.0007L84.7457 22.6555C85.4157 21.5275 86.3284 21.2112 87.3013 21.789L92.0532 24.6113C92.9979 25.1724 93.2574 25.956 92.7716 26.7738C92.2859 27.5916 91.4821 27.7246 90.5373 27.1635L87.3224 25.2541L86.6273 26.4244L89.673 28.2334C90.5755 28.7693 90.8151 29.522 90.3545 30.2976C89.8939 31.0731 89.1266 31.2087 88.1537 30.6309L85.1785 28.8638L84.4918 30.02L87.9464 32.0719C88.8911 32.633 89.1506 33.4165 88.6648 34.2343C88.1791 35.0522 87.3753 35.1851 86.4306 34.624L81.439 31.6594Z" fill="white"/>
<path d="M89.4036 37.0048C88.6414 36.1684 88.767 35.2107 89.7367 34.3269L95.1911 29.3556C96.1608 28.4719 97.126 28.4353 97.8883 29.2717L99.8547 31.4292C102.594 34.4352 102.792 37.4279 99.9198 40.0461C97.435 42.3108 94.2203 42.2895 91.3148 39.1017L89.4036 37.0048ZM92.8017 36.3264L93.3209 36.8961C94.4588 38.1445 95.8474 38.7429 97.4231 37.3068C98.7443 36.1026 98.8871 34.7742 97.5062 33.2591L96.8986 32.5924L92.8017 36.3264Z" fill="white"/>
<path d="M99.1872 53.513C98.2434 50.2009 99.6128 47.1674 103.367 46.0977C107.12 45.028 109.883 46.8839 110.827 50.196C111.775 53.5239 110.343 56.6948 106.684 57.7375C103.024 58.7803 100.136 56.8409 99.1872 53.513ZM104.382 49.6622C102.395 50.2285 101.644 51.3634 102.026 52.704C102.408 54.0446 103.681 54.7393 105.668 54.173C107.671 53.6022 108.37 52.3457 107.988 51.005C107.606 49.6644 106.385 49.0914 104.382 49.6622Z" fill="white"/>
<path d="M100.682 61.1262C100.737 60.0452 101.472 59.4751 102.733 59.5393L110.005 59.9096C111.692 59.9955 112.796 61.2176 112.711 62.8882C112.636 64.3623 111.756 65.1878 110.15 65.7793L105.53 67.4982C106.107 67.4619 106.566 67.4689 107.172 67.4997L110.499 67.6363C111.761 67.6841 112.433 68.3424 112.378 69.4234C112.322 70.5207 111.586 71.1073 110.325 71.043L102.659 70.6691C101.201 70.5949 100.253 69.5449 100.327 68.1036C100.392 66.826 101.149 66.1421 102.539 65.6053L108.888 63.1533C108.393 63.1938 107.983 63.1894 107.246 63.1518L102.56 62.9461C101.298 62.8982 100.626 62.2236 100.682 61.1262Z" fill="white"/>
<path d="M98.2063 76.1554C98.6818 75.2567 99.9777 74.7363 101.259 76.1377L106.532 81.9155C107.484 82.9572 107.669 84.1499 106.987 85.44C106.296 86.7446 105.214 87.2479 103.817 87.047L96.0735 85.9369C94.1943 85.6662 93.8956 84.3021 94.3711 83.4033C94.839 82.5191 95.6072 82.2947 97.1266 82.5791L97.587 82.6558L99.4125 79.2058L99.0901 78.8682C97.9858 77.7643 97.7461 77.0252 98.2063 76.1554ZM101.492 81.3078L100.494 83.1923L102.591 83.5781C103.234 83.6956 103.738 83.7952 104.124 83.9068C103.807 83.6648 103.449 83.2897 102.975 82.8166L101.492 81.3078Z" fill="white"/>
<path d="M92.841 85.5166C93.6192 84.6951 94.5836 84.7502 95.536 85.6525L101.12 90.9424C102.072 91.8447 102.179 92.8047 101.401 93.6262C100.612 94.4596 99.6359 94.4163 98.6835 93.514L93.7665 88.8558L91.24 91.5226C90.4843 92.3203 89.6747 92.4118 88.9842 91.7576C88.2937 91.1034 88.3294 90.2788 89.0851 89.4811L92.841 85.5166Z" fill="white"/>
<path d="M86.422 91.5317C87.3792 90.9282 88.2999 91.22 88.9997 92.3298L93.1022 98.836C93.802 99.9458 93.6684 100.902 92.7112 101.506C91.7402 102.118 90.8055 101.835 90.1057 100.725L86.4931 94.9961L83.3857 96.9555C82.4562 97.5415 81.6492 97.43 81.1418 96.6254C80.6345 95.8208 80.873 95.0306 81.8024 94.4446L86.422 91.5317Z" fill="white"/>
<path d="M72.0487 97.2512C73.1623 97.0503 73.9066 97.666 74.1395 98.9572L75.3417 105.623L77.2784 105.274C78.3598 105.079 79.0663 105.484 79.2351 106.42C79.4039 107.357 78.8867 108 77.8053 108.195L70.4779 109.516C69.3966 109.711 68.6872 109.289 68.5184 108.353C68.3496 107.417 68.8697 106.79 69.9511 106.595L71.8555 106.252L70.6534 99.5859C70.4205 98.2948 70.9189 97.4549 72.0487 97.2512Z" fill="white"/>
<path d="M65.3053 97.981C66.4292 98.1124 66.9625 98.9177 66.8102 100.221L65.8809 108.17C65.7285 109.473 65.0239 110.134 63.8999 110.002C62.7597 109.869 62.2101 109.062 62.3625 107.759L62.6519 105.283L59.1986 104.879L58.9092 107.355C58.7568 108.658 58.0521 109.319 56.9282 109.187C55.788 109.054 55.2384 108.247 55.3907 106.944L56.32 98.9945C56.4724 97.6914 57.1933 97.0326 58.3336 97.1659C59.4575 97.2973 59.9908 98.1027 59.8385 99.4058L59.5433 101.931L62.9966 102.334L63.2917 99.8095C63.4441 98.5064 64.1651 97.8477 65.3053 97.981Z" fill="white"/>
<path d="M54.3188 96.2862C55.356 96.7388 55.6321 97.6644 55.1074 98.867L52.1559 105.631C51.6312 106.834 50.7649 107.261 49.7277 106.808L44.6621 104.598C43.655 104.158 43.3003 103.413 43.6807 102.541C44.0611 101.67 44.8422 101.438 45.8493 101.877L49.2764 103.373L49.8208 102.125L46.574 100.708C45.612 100.289 45.2808 99.5715 45.6415 98.7447C46.0022 97.918 46.7467 97.6881 47.7839 98.1407L50.9555 99.5246L51.4933 98.292L47.8106 96.6851C46.8035 96.2457 46.4487 95.5004 46.8292 94.6286C47.2096 93.7568 47.9906 93.525 48.9977 93.9644L54.3188 96.2862Z" fill="white"/>
<path d="M43.1812 89.6116C43.9626 90.4301 43.8592 91.3905 42.9102 92.2964L37.347 97.6078C36.398 98.5138 35.4339 98.5727 34.6525 97.7542L32.161 95.1446C30.4509 93.3534 29.7131 91.1556 31.7415 89.219C33.7699 87.2825 35.9193 88.1326 37.6294 89.9238L38.8864 91.2405L40.4641 89.7343C41.413 88.8283 42.3885 88.7813 43.1812 89.6116ZM36.8224 93.211L35.7013 92.0367C35.1237 91.4317 34.6368 91.4204 34.2216 91.8168C33.8302 92.1905 33.738 92.664 34.3609 93.3164L35.482 94.4907L36.8224 93.211Z" fill="white"/>
<path d="M36.388 81.7047C36.8909 82.6817 36.527 83.5514 35.3896 84.1369L28.507 87.6795C27.3405 88.2799 26.3991 88.0636 25.8812 87.0574L24.0574 83.5141C22.9991 81.458 23.0343 79.4479 25.0174 78.4271C26.461 77.6841 27.7512 78.2558 28.5908 79.1701C28.119 77.716 28.6291 76.8079 29.8832 76.1624L30.9331 75.622C32.1142 75.014 33.0631 75.245 33.596 76.2803C34.1138 77.2864 33.7429 78.1783 32.5618 78.7862L31.7889 79.184C30.8849 79.6494 30.8184 80.2369 31.2687 81.1118L31.7866 82.118L33.8135 81.0747C34.9508 80.4893 35.8776 80.7131 36.388 81.7047ZM29.3077 83.3939L28.6097 82.0378C28.2644 81.3671 27.8197 80.9688 27.1489 81.3141C26.5073 81.6443 26.6021 82.2227 26.9549 82.908L27.6454 84.2495L29.3077 83.3939Z" fill="white"/>
<path d="M31.5769 68.5048C32.1013 71.9086 30.365 74.7481 26.5073 75.3424C22.6496 75.9367 20.1392 73.7514 19.6149 70.3476C19.088 66.9275 20.9041 63.9596 24.6645 63.3803C28.4249 62.801 31.0501 65.0847 31.5769 68.5048ZM25.943 71.6792C27.9853 71.3646 28.8716 70.332 28.6594 68.9542C28.4471 67.5765 27.2711 66.7289 25.2288 67.0435C23.1703 67.3606 22.3202 68.5204 22.5324 69.8981C22.7447 71.2759 23.8845 71.9963 25.943 71.6792Z" fill="white"/>
<path d="M31.0443 61.1865C30.872 62.3049 30.0477 62.8085 28.751 62.6087L21.1491 61.4376C19.8524 61.2379 19.2178 60.5096 19.3901 59.3911L19.9395 55.8252C20.3165 53.3777 21.6087 51.4528 24.3804 51.8798C27.1521 52.3068 27.7888 54.5288 27.4117 56.9764L27.1346 58.7755L29.2903 59.1076C30.587 59.3074 31.2191 60.0519 31.0443 61.1865ZM24.3142 58.341L24.5614 56.7364C24.6888 55.9097 24.4009 55.5169 23.8335 55.4295C23.2987 55.3471 22.8672 55.5627 22.7299 56.4542L22.4826 58.0589L24.3142 58.341Z" fill="white"/>
<path d="M34.2398 48.7998C33.514 50.3975 32.499 51.5215 31.1825 52.0402C29.3734 52.7314 27.9873 51.1831 28.6114 49.8094C28.9574 49.0479 29.6292 48.7587 30.2657 48.7056C30.9023 48.6525 31.3704 48.2168 31.6825 47.5299C32.0013 46.8281 31.9822 46.1169 31.4446 45.8727C31.0415 45.6896 30.7049 45.915 30.3141 46.4579L29.2951 47.8684C28.1227 49.4973 26.6381 50.6241 24.697 49.7423C22.5469 48.7655 22.108 46.2424 23.2815 43.6593C24.0481 41.972 25.1405 40.9552 25.9005 40.67C27.6594 40.0101 28.9993 41.5014 28.3888 42.8453C28.0564 43.5769 27.4335 43.7983 26.7915 43.9029C26.383 43.9695 26.0139 44.3062 25.7425 44.9034C25.4305 45.5902 25.4835 46.2268 25.9464 46.4371C26.3496 46.6202 26.6685 46.3148 27.142 45.6293L27.9914 44.394C29.0634 42.8275 30.5806 41.5894 32.6859 42.5458C34.6867 43.4548 35.6643 45.6642 34.2398 48.7998Z" fill="white"/>
<defs>
<filter id="filter0_ddd_1009_5509" x="0.162231" y="12.9027" width="131.239" height="112.117" filterUnits="userSpaceOnUse" color-interpolation-filters="sRGB">
<feFlood flood-opacity="0" result="BackgroundImageFix"/>
<feColorMatrix in="SourceAlpha" type="matrix" values="0 0 0 0 0 0 0 0 0 0 0 0 0 0 0 0 0 0 127 0" result="hardAlpha"/>
<feOffset dy="8"/>
<feGaussianBlur stdDeviation="24"/>
<feColorMatrix type="matrix" values="0 0 0 0 0.126 0 0 0 0 0.138133 0 0 0 0 0.154 0 0 0 0.02 0"/>
<feBlend mode="normal" in2="BackgroundImageFix" result="effect1_dropShadow_1009_5509"/>
<feColorMatrix in="SourceAlpha" type="matrix" values="0 0 0 0 0 0 0 0 0 0 0 0 0 0 0 0 0 0 127 0" result="hardAlpha"/>
<feOffset dy="4"/>
<feGaussianBlur stdDeviation="4"/>
<feComposite in2="hardAlpha" operator="out"/>
<feColorMatrix type="matrix" values="0 0 0 0 0.126 0 0 0 0 0.138133 0 0 0 0 0.154 0 0 0 0.04 0"/>
<feBlend mode="normal" in2="effect1_dropShadow_1009_5509" result="effect2_dropShadow_1009_5509"/>
<feColorMatrix in="SourceAlpha" type="matrix" values="0 0 0 0 0 0 0 0 0 0 0 0 0 0 0 0 0 0 127 0" result="hardAlpha"/>
<feOffset/>
<feGaussianBlur stdDeviation="0.5"/>
<feComposite in2="hardAlpha" operator="out"/>
<feColorMatrix type="matrix" values="0 0 0 0 0.126 0 0 0 0 0.138133 0 0 0 0 0.154 0 0 0 0.16 0"/>
<feBlend mode="normal" in2="effect2_dropShadow_1009_5509" result="effect3_dropShadow_1009_5509"/>
<feBlend mode="normal" in="SourceGraphic" in2="effect3_dropShadow_1009_5509" result="shape"/>
</filter>
<linearGradient id="paint0_linear_1009_5509" x1="65.5" y1="5" x2="65.5" y2="118" gradientUnits="userSpaceOnUse">
<stop stop-color="#FF3E3E"/>
<stop offset="1" stop-color="#FFD43E"/>
</linearGradient>
<linearGradient id="paint1_linear_1009_5509" x1="109.5" y1="141.5" x2="-87.6987" y2="-168.958" gradientUnits="userSpaceOnUse">
<stop stop-color="#FF0000"/>
<stop offset="1" stop-color="#FFC700"/>
</linearGradient>
<linearGradient id="paint2_linear_1009_5509" x1="-24.1987" y1="-83.4583" x2="107.301" y2="148.542" gradientUnits="userSpaceOnUse">
<stop stop-color="#FFFBD7"/>
<stop offset="1" stop-color="#FFCECE"/>
</linearGradient>
</defs>
</svg>
