<svg width="123" height="123" viewBox="0 0 123 123" fill="none" xmlns="http://www.w3.org/2000/svg">
<mask id="path-1-outside-1_1009_5479" maskUnits="userSpaceOnUse" x="0" y="0" width="123" height="123" fill="black">
<rect fill="white" width="123" height="123"/>
<path d="M58.4065 7.39228C59.2355 4.20257 63.7645 4.20257 64.5935 7.39229V7.39229C65.3303 10.2272 69.1749 10.6604 70.5241 8.0605V8.0605C72.0421 5.13524 76.4576 6.14304 76.5561 9.43726V9.43726C76.6436 12.3651 80.2954 13.6429 82.1893 11.4084V11.4084C84.3202 8.89427 88.4007 10.8593 87.7636 14.0929V14.0929C87.1974 16.9668 90.4733 19.0252 92.817 17.2681V17.2681C95.4539 15.2912 98.9948 18.115 97.6542 21.1257V21.1257C96.4627 23.8015 99.1985 26.5373 101.874 25.3458V25.3458C104.885 24.0052 107.709 27.5461 105.732 30.183V30.183C103.975 32.5266 106.033 35.8025 108.907 35.2364V35.2364C112.141 34.5993 114.106 38.6798 111.592 40.8107V40.8107C109.357 42.7046 110.635 46.3564 113.563 46.4439V46.4439C116.857 46.5424 117.865 50.9579 114.939 52.4759V52.4759C112.34 53.8251 112.773 57.6696 115.608 58.4065V58.4065C118.797 59.2355 118.797 63.7645 115.608 64.5935V64.5935C112.773 65.3303 112.34 69.1749 114.939 70.5241V70.5241C117.865 72.0421 116.857 76.4576 113.563 76.5561V76.5561C110.635 76.6436 109.357 80.2954 111.592 82.1893V82.1893C114.106 84.3202 112.141 88.4007 108.907 87.7636V87.7636C106.033 87.1974 103.975 90.4733 105.732 92.817V92.817C107.709 95.4539 104.885 98.9948 101.874 97.6542V97.6542C99.1985 96.4627 96.4627 99.1985 97.6542 101.874V101.874C98.9948 104.885 95.4539 107.709 92.817 105.732V105.732C90.4733 103.975 87.1974 106.033 87.7636 108.907V108.907C88.4007 112.141 84.3202 114.106 82.1893 111.592V111.592C80.2954 109.357 76.6436 110.635 76.5561 113.563V113.563C76.4576 116.857 72.0421 117.865 70.5241 114.939V114.939C69.1749 112.34 65.3303 112.773 64.5935 115.608V115.608C63.7645 118.797 59.2355 118.797 58.4065 115.608V115.608C57.6696 112.773 53.8251 112.34 52.4759 114.939V114.939C50.9579 117.865 46.5424 116.857 46.4439 113.563V113.563C46.3564 110.635 42.7046 109.357 40.8107 111.592V111.592C38.6798 114.106 34.5993 112.141 35.2364 108.907V108.907C35.8025 106.033 32.5266 103.975 30.183 105.732V105.732C27.5461 107.709 24.0052 104.885 25.3458 101.874V101.874C26.5373 99.1985 23.8015 96.4627 21.1257 97.6542V97.6542C18.115 98.9948 15.2912 95.4539 17.2681 92.817V92.817C19.0252 90.4733 16.9668 87.1974 14.0929 87.7636V87.7636C10.8593 88.4007 8.89427 84.3202 11.4084 82.1893V82.1893C13.6429 80.2954 12.3651 76.6436 9.43726 76.5561V76.5561C6.14304 76.4576 5.13524 72.0421 8.0605 70.5241V70.5241C10.6604 69.1749 10.2272 65.3303 7.39228 64.5935V64.5935C4.20257 63.7645 4.20257 59.2355 7.39229 58.4065V58.4065C10.2272 57.6696 10.6604 53.8251 8.0605 52.4759V52.4759C5.13524 50.9579 6.14304 46.5424 9.43726 46.4439V46.4439C12.3651 46.3564 13.6429 42.7046 11.4084 40.8107V40.8107C8.89427 38.6798 10.8593 34.5993 14.0929 35.2364V35.2364C16.9668 35.8025 19.0252 32.5266 17.2681 30.183V30.183C15.2912 27.5461 18.115 24.0052 21.1257 25.3458V25.3458C23.8015 26.5373 26.5373 23.8015 25.3458 21.1257V21.1257C24.0052 18.115 27.5461 15.2912 30.183 17.2681V17.2681C32.5266 19.0252 35.8025 16.9668 35.2364 14.0929V14.0929C34.5993 10.8593 38.6798 8.89427 40.8107 11.4084V11.4084C42.7046 13.6429 46.3564 12.3651 46.4439 9.43725V9.43725C46.5424 6.14304 50.9579 5.13524 52.4759 8.0605V8.0605C53.8251 10.6604 57.6696 10.2272 58.4065 7.39228V7.39228Z"/>
</mask>
<path d="M58.4065 7.39228C59.2355 4.20257 63.7645 4.20257 64.5935 7.39229V7.39229C65.3303 10.2272 69.1749 10.6604 70.5241 8.0605V8.0605C72.0421 5.13524 76.4576 6.14304 76.5561 9.43726V9.43726C76.6436 12.3651 80.2954 13.6429 82.1893 11.4084V11.4084C84.3202 8.89427 88.4007 10.8593 87.7636 14.0929V14.0929C87.1974 16.9668 90.4733 19.0252 92.817 17.2681V17.2681C95.4539 15.2912 98.9948 18.115 97.6542 21.1257V21.1257C96.4627 23.8015 99.1985 26.5373 101.874 25.3458V25.3458C104.885 24.0052 107.709 27.5461 105.732 30.183V30.183C103.975 32.5266 106.033 35.8025 108.907 35.2364V35.2364C112.141 34.5993 114.106 38.6798 111.592 40.8107V40.8107C109.357 42.7046 110.635 46.3564 113.563 46.4439V46.4439C116.857 46.5424 117.865 50.9579 114.939 52.4759V52.4759C112.34 53.8251 112.773 57.6696 115.608 58.4065V58.4065C118.797 59.2355 118.797 63.7645 115.608 64.5935V64.5935C112.773 65.3303 112.34 69.1749 114.939 70.5241V70.5241C117.865 72.0421 116.857 76.4576 113.563 76.5561V76.5561C110.635 76.6436 109.357 80.2954 111.592 82.1893V82.1893C114.106 84.3202 112.141 88.4007 108.907 87.7636V87.7636C106.033 87.1974 103.975 90.4733 105.732 92.817V92.817C107.709 95.4539 104.885 98.9948 101.874 97.6542V97.6542C99.1985 96.4627 96.4627 99.1985 97.6542 101.874V101.874C98.9948 104.885 95.4539 107.709 92.817 105.732V105.732C90.4733 103.975 87.1974 106.033 87.7636 108.907V108.907C88.4007 112.141 84.3202 114.106 82.1893 111.592V111.592C80.2954 109.357 76.6436 110.635 76.5561 113.563V113.563C76.4576 116.857 72.0421 117.865 70.5241 114.939V114.939C69.1749 112.34 65.3303 112.773 64.5935 115.608V115.608C63.7645 118.797 59.2355 118.797 58.4065 115.608V115.608C57.6696 112.773 53.8251 112.34 52.4759 114.939V114.939C50.9579 117.865 46.5424 116.857 46.4439 113.563V113.563C46.3564 110.635 42.7046 109.357 40.8107 111.592V111.592C38.6798 114.106 34.5993 112.141 35.2364 108.907V108.907C35.8025 106.033 32.5266 103.975 30.183 105.732V105.732C27.5461 107.709 24.0052 104.885 25.3458 101.874V101.874C26.5373 99.1985 23.8015 96.4627 21.1257 97.6542V97.6542C18.115 98.9948 15.2912 95.4539 17.2681 92.817V92.817C19.0252 90.4733 16.9668 87.1974 14.0929 87.7636V87.7636C10.8593 88.4007 8.89427 84.3202 11.4084 82.1893V82.1893C13.6429 80.2954 12.3651 76.6436 9.43726 76.5561V76.5561C6.14304 76.4576 5.13524 72.0421 8.0605 70.5241V70.5241C10.6604 69.1749 10.2272 65.3303 7.39228 64.5935V64.5935C4.20257 63.7645 4.20257 59.2355 7.39229 58.4065V58.4065C10.2272 57.6696 10.6604 53.8251 8.0605 52.4759V52.4759C5.13524 50.9579 6.14304 46.5424 9.43726 46.4439V46.4439C12.3651 46.3564 13.6429 42.7046 11.4084 40.8107V40.8107C8.89427 38.6798 10.8593 34.5993 14.0929 35.2364V35.2364C16.9668 35.8025 19.0252 32.5266 17.2681 30.183V30.183C15.2912 27.5461 18.115 24.0052 21.1257 25.3458V25.3458C23.8015 26.5373 26.5373 23.8015 25.3458 21.1257V21.1257C24.0052 18.115 27.5461 15.2912 30.183 17.2681V17.2681C32.5266 19.0252 35.8025 16.9668 35.2364 14.0929V14.0929C34.5993 10.8593 38.6798 8.89427 40.8107 11.4084V11.4084C42.7046 13.6429 46.3564 12.3651 46.4439 9.43725V9.43725C46.5424 6.14304 50.9579 5.13524 52.4759 8.0605V8.0605C53.8251 10.6604 57.6696 10.2272 58.4065 7.39228V7.39228Z" fill="url(#paint0_linear_1009_5479)"/>
<path d="M58.4065 7.39228C59.2355 4.20257 63.7645 4.20257 64.5935 7.39229V7.39229C65.3303 10.2272 69.1749 10.6604 70.5241 8.0605V8.0605C72.0421 5.13524 76.4576 6.14304 76.5561 9.43726V9.43726C76.6436 12.3651 80.2954 13.6429 82.1893 11.4084V11.4084C84.3202 8.89427 88.4007 10.8593 87.7636 14.0929V14.0929C87.1974 16.9668 90.4733 19.0252 92.817 17.2681V17.2681C95.4539 15.2912 98.9948 18.115 97.6542 21.1257V21.1257C96.4627 23.8015 99.1985 26.5373 101.874 25.3458V25.3458C104.885 24.0052 107.709 27.5461 105.732 30.183V30.183C103.975 32.5266 106.033 35.8025 108.907 35.2364V35.2364C112.141 34.5993 114.106 38.6798 111.592 40.8107V40.8107C109.357 42.7046 110.635 46.3564 113.563 46.4439V46.4439C116.857 46.5424 117.865 50.9579 114.939 52.4759V52.4759C112.34 53.8251 112.773 57.6696 115.608 58.4065V58.4065C118.797 59.2355 118.797 63.7645 115.608 64.5935V64.5935C112.773 65.3303 112.34 69.1749 114.939 70.5241V70.5241C117.865 72.0421 116.857 76.4576 113.563 76.5561V76.5561C110.635 76.6436 109.357 80.2954 111.592 82.1893V82.1893C114.106 84.3202 112.141 88.4007 108.907 87.7636V87.7636C106.033 87.1974 103.975 90.4733 105.732 92.817V92.817C107.709 95.4539 104.885 98.9948 101.874 97.6542V97.6542C99.1985 96.4627 96.4627 99.1985 97.6542 101.874V101.874C98.9948 104.885 95.4539 107.709 92.817 105.732V105.732C90.4733 103.975 87.1974 106.033 87.7636 108.907V108.907C88.4007 112.141 84.3202 114.106 82.1893 111.592V111.592C80.2954 109.357 76.6436 110.635 76.5561 113.563V113.563C76.4576 116.857 72.0421 117.865 70.5241 114.939V114.939C69.1749 112.34 65.3303 112.773 64.5935 115.608V115.608C63.7645 118.797 59.2355 118.797 58.4065 115.608V115.608C57.6696 112.773 53.8251 112.34 52.4759 114.939V114.939C50.9579 117.865 46.5424 116.857 46.4439 113.563V113.563C46.3564 110.635 42.7046 109.357 40.8107 111.592V111.592C38.6798 114.106 34.5993 112.141 35.2364 108.907V108.907C35.8025 106.033 32.5266 103.975 30.183 105.732V105.732C27.5461 107.709 24.0052 104.885 25.3458 101.874V101.874C26.5373 99.1985 23.8015 96.4627 21.1257 97.6542V97.6542C18.115 98.9948 15.2912 95.4539 17.2681 92.817V92.817C19.0252 90.4733 16.9668 87.1974 14.0929 87.7636V87.7636C10.8593 88.4007 8.89427 84.3202 11.4084 82.1893V82.1893C13.6429 80.2954 12.3651 76.6436 9.43726 76.5561V76.5561C6.14304 76.4576 5.13524 72.0421 8.0605 70.5241V70.5241C10.6604 69.1749 10.2272 65.3303 7.39228 64.5935V64.5935C4.20257 63.7645 4.20257 59.2355 7.39229 58.4065V58.4065C10.2272 57.6696 10.6604 53.8251 8.0605 52.4759V52.4759C5.13524 50.9579 6.14304 46.5424 9.43726 46.4439V46.4439C12.3651 46.3564 13.6429 42.7046 11.4084 40.8107V40.8107C8.89427 38.6798 10.8593 34.5993 14.0929 35.2364V35.2364C16.9668 35.8025 19.0252 32.5266 17.2681 30.183V30.183C15.2912 27.5461 18.115 24.0052 21.1257 25.3458V25.3458C23.8015 26.5373 26.5373 23.8015 25.3458 21.1257V21.1257C24.0052 18.115 27.5461 15.2912 30.183 17.2681V17.2681C32.5266 19.0252 35.8025 16.9668 35.2364 14.0929V14.0929C34.5993 10.8593 38.6798 8.89427 40.8107 11.4084V11.4084C42.7046 13.6429 46.3564 12.3651 46.4439 9.43725V9.43725C46.5424 6.14304 50.9579 5.13524 52.4759 8.0605V8.0605C53.8251 10.6604 57.6696 10.2272 58.4065 7.39228V7.39228Z" stroke="white" stroke-width="10" mask="url(#path-1-outside-1_1009_5479)"/>
<path d="M58.4065 7.39228C59.2355 4.20257 63.7645 4.20257 64.5935 7.39229V7.39229C65.3304 10.2272 69.1749 10.6604 70.5241 8.0605V8.0605C72.0421 5.13524 76.4576 6.14304 76.5561 9.43726V9.43726C76.6436 12.3651 80.2954 13.6429 82.1893 11.4084V11.4084C84.3202 8.89427 88.4007 10.8593 87.7636 14.0929V14.0929C87.1974 16.9668 90.4733 19.0252 92.817 17.2681V17.2681C95.4539 15.2912 98.9948 18.115 97.6542 21.1257V21.1257C96.4627 23.8015 99.1985 26.5373 101.874 25.3458V25.3458C104.885 24.0052 107.709 27.5461 105.732 30.183V30.183C103.975 32.5266 106.033 35.8026 108.907 35.2364V35.2364C112.141 34.5993 114.106 38.6798 111.592 40.8107V40.8107C109.357 42.7046 110.635 46.3564 113.563 46.4439V46.4439C116.857 46.5424 117.865 50.9579 114.939 52.4759V52.4759C112.34 53.8251 112.773 57.6696 115.608 58.4065V58.4065C118.797 59.2355 118.797 63.7645 115.608 64.5935V64.5935C112.773 65.3304 112.34 69.1749 114.939 70.5241V70.5241C117.865 72.0421 116.857 76.4576 113.563 76.5561V76.5561C110.635 76.6436 109.357 80.2954 111.592 82.1893V82.1893C114.106 84.3202 112.141 88.4007 108.907 87.7636V87.7636C106.033 87.1974 103.975 90.4733 105.732 92.817V92.817C107.709 95.4539 104.885 98.9948 101.874 97.6542V97.6542C99.1985 96.4627 96.4627 99.1985 97.6542 101.874V101.874C98.9948 104.885 95.4539 107.709 92.817 105.732V105.732C90.4733 103.975 87.1974 106.033 87.7636 108.907V108.907C88.4007 112.141 84.3202 114.106 82.1893 111.592V111.592C80.2954 109.357 76.6436 110.635 76.5561 113.563V113.563C76.4576 116.857 72.0421 117.865 70.5241 114.939V114.939C69.1749 112.34 65.3304 112.773 64.5935 115.608V115.608C63.7645 118.797 59.2355 118.797 58.4065 115.608V115.608C57.6696 112.773 53.8251 112.34 52.4759 114.939V114.939C50.9579 117.865 46.5424 116.857 46.4439 113.563V113.563C46.3564 110.635 42.7046 109.357 40.8107 111.592V111.592C38.6798 114.106 34.5993 112.141 35.2364 108.907V108.907C35.8026 106.033 32.5266 103.975 30.183 105.732V105.732C27.5461 107.709 24.0052 104.885 25.3458 101.874V101.874C26.5373 99.1985 23.8015 96.4627 21.1257 97.6542V97.6542C18.115 98.9948 15.2912 95.4539 17.2681 92.817V92.817C19.0252 90.4733 16.9668 87.1974 14.0929 87.7636V87.7636C10.8593 88.4007 8.89427 84.3202 11.4084 82.1893V82.1893C13.6429 80.2954 12.3651 76.6436 9.43726 76.5561V76.5561C6.14304 76.4576 5.13524 72.0421 8.0605 70.5241V70.5241C10.6604 69.1749 10.2272 65.3304 7.39228 64.5935V64.5935C4.20257 63.7645 4.20257 59.2355 7.39229 58.4065V58.4065C10.2272 57.6696 10.6604 53.8251 8.0605 52.4759V52.4759C5.13524 50.9579 6.14304 46.5424 9.43726 46.4439V46.4439C12.3651 46.3564 13.6429 42.7046 11.4084 40.8107V40.8107C8.89427 38.6798 10.8593 34.5993 14.0929 35.2364V35.2364C16.9668 35.8026 19.0252 32.5266 17.2681 30.183V30.183C15.2912 27.5461 18.115 24.0052 21.1257 25.3458V25.3458C23.8015 26.5373 26.5373 23.8015 25.3458 21.1257V21.1257C24.0052 18.115 27.5461 15.2912 30.183 17.2681V17.2681C32.5266 19.0252 35.8026 16.9668 35.2364 14.0929V14.0929C34.5993 10.8593 38.6798 8.89427 40.8107 11.4084V11.4084C42.7046 13.6429 46.3564 12.3651 46.4439 9.43725V9.43725C46.5424 6.14304 50.9579 5.13524 52.4759 8.0605V8.0605C53.8251 10.6604 57.6696 10.2272 58.4065 7.39228V7.39228Z" fill="url(#paint1_linear_1009_5479)"/>
<circle cx="61.8013" cy="62" r="27" fill="#FFBB3E"/>
<path fill-rule="evenodd" clip-rule="evenodd" d="M54.9338 3.22336C58.1067 -1.07445 64.8933 -1.07445 68.0662 3.22335C72.1159 -0.260663 78.7324 1.24951 80.8693 6.14559C85.5928 3.65007 91.7073 6.59467 92.7012 11.8435C97.8615 10.4616 103.168 14.693 102.969 20.0314C108.307 19.8325 112.538 25.1385 111.156 30.2988C116.405 31.2927 119.35 37.4072 116.854 42.1306C121.75 44.2676 123.261 50.8841 119.777 54.9338C124.074 58.1067 124.074 64.8933 119.777 68.0662C123.261 72.1159 121.75 78.7324 116.854 80.8693C119.35 85.5928 116.405 91.7073 111.156 92.7012C112.538 97.8615 108.307 103.168 102.969 102.969C103.168 108.307 97.8615 112.538 92.7012 111.156C91.7073 116.405 85.5928 119.35 80.8693 116.854C78.7324 121.75 72.1159 123.261 68.0662 119.777C64.8933 124.074 58.1067 124.074 54.9338 119.777C50.8841 123.261 44.2676 121.75 42.1306 116.854C37.4072 119.35 31.2927 116.405 30.2988 111.156C25.1385 112.538 19.8325 108.307 20.0314 102.969C14.693 103.168 10.4616 97.8615 11.8435 92.7012C6.59467 91.7073 3.65006 85.5928 6.14559 80.8693C1.24951 78.7324 -0.260665 72.1159 3.22335 68.0662C-1.07445 64.8933 -1.07445 58.1067 3.22336 54.9338C-0.260665 50.8841 1.24951 44.2676 6.14559 42.1306C3.65006 37.4072 6.59467 31.2927 11.8435 30.2988C10.4616 25.1385 14.693 19.8325 20.0314 20.0314C19.8325 14.693 25.1385 10.4616 30.2988 11.8435C31.2927 6.59467 37.4072 3.65006 42.1306 6.14559C44.2676 1.24951 50.8841 -0.260666 54.9338 3.22336ZM64.5935 7.39229C63.7645 4.20257 59.2355 4.20257 58.4065 7.39228C57.6696 10.2272 53.8251 10.6604 52.4759 8.0605C50.9579 5.13524 46.5424 6.14304 46.4439 9.43725C46.3564 12.3651 42.7046 13.6429 40.8107 11.4084C38.6798 8.89427 34.5993 10.8593 35.2364 14.0929C35.8025 16.9668 32.5266 19.0252 30.183 17.2681C27.5461 15.2912 24.0052 18.115 25.3458 21.1257C26.5373 23.8015 23.8015 26.5373 21.1257 25.3458C18.115 24.0052 15.2912 27.5461 17.2681 30.183C19.0252 32.5266 16.9668 35.8025 14.0929 35.2364C10.8593 34.5993 8.89427 38.6798 11.4084 40.8107C13.6429 42.7046 12.3651 46.3564 9.43725 46.4439C6.14304 46.5424 5.13524 50.9579 8.0605 52.4759C10.6604 53.8251 10.2272 57.6696 7.39229 58.4065C4.20257 59.2355 4.20257 63.7645 7.39228 64.5935C10.2272 65.3303 10.6604 69.1749 8.0605 70.5241C5.13524 72.0421 6.14304 76.4576 9.43725 76.5561C12.3651 76.6436 13.6429 80.2954 11.4084 82.1893C8.89427 84.3202 10.8593 88.4007 14.0929 87.7636C16.9668 87.1974 19.0252 90.4733 17.2681 92.817C15.2912 95.4539 18.115 98.9948 21.1257 97.6542C23.8015 96.4627 26.5373 99.1985 25.3458 101.874C24.0052 104.885 27.5461 107.709 30.183 105.732C32.5266 103.975 35.8025 106.033 35.2364 108.907C34.5993 112.141 38.6798 114.106 40.8107 111.592C42.7046 109.357 46.3564 110.635 46.4439 113.563C46.5424 116.857 50.9579 117.865 52.4759 114.939C53.8251 112.34 57.6696 112.773 58.4065 115.608C59.2355 118.797 63.7645 118.797 64.5935 115.608C65.3303 112.773 69.1749 112.34 70.5241 114.939C72.0421 117.865 76.4576 116.857 76.5561 113.563C76.6436 110.635 80.2954 109.357 82.1893 111.592C84.3202 114.106 88.4007 112.141 87.7636 108.907C87.1974 106.033 90.4733 103.975 92.817 105.732C95.4539 107.709 98.9948 104.885 97.6542 101.874C96.4627 99.1985 99.1985 96.4627 101.874 97.6542C104.885 98.9948 107.709 95.4539 105.732 92.817C103.975 90.4733 106.033 87.1974 108.907 87.7636C112.141 88.4007 114.106 84.3202 111.592 82.1893C109.357 80.2954 110.635 76.6436 113.563 76.5561C116.857 76.4576 117.865 72.0421 114.939 70.5241C112.34 69.1749 112.773 65.3303 115.608 64.5935C118.797 63.7645 118.797 59.2355 115.608 58.4065C112.773 57.6696 112.34 53.8251 114.939 52.4759C117.865 50.9579 116.857 46.5424 113.563 46.4439C110.635 46.3564 109.357 42.7046 111.592 40.8107C114.106 38.6798 112.141 34.5993 108.907 35.2364C106.033 35.8025 103.975 32.5266 105.732 30.183C107.709 27.5461 104.885 24.0052 101.874 25.3458C99.1985 26.5373 96.4627 23.8015 97.6542 21.1257C98.9948 18.115 95.4539 15.2912 92.817 17.2681C90.4733 19.0252 87.1974 16.9668 87.7636 14.0929C88.4007 10.8593 84.3202 8.89427 82.1893 11.4084C80.2954 13.6429 76.6436 12.3651 76.5561 9.43725C76.4576 6.14304 72.0421 5.13524 70.5241 8.0605C69.1749 10.6604 65.3303 10.2272 64.5935 7.39229Z" fill="url(#paint2_linear_1009_5479)"/>
<path d="M49.4817 55.3334H62.8425V59.9107H65.4404V55.3334H78.8013V69.0653H65.4404V62.1994H62.8425V69.0653H49.4817V62.1994H45.0281V66.7767H42.8013V59.9107H49.4817V55.3334Z" fill="#FF4A3E"/>
<rect x="52.0806" y="57.6221" width="4.08247" height="9.15464" fill="white"/>
<rect x="67.2957" y="57.6221" width="4.82474" height="9.15464" fill="white"/>
<rect x="56.1618" y="57.6221" width="4.45361" height="9.15464" fill="#801C0D"/>
<rect x="72.1215" y="57.6221" width="4.45361" height="9.15464" fill="#801C0D"/>
<path d="M39.1043 36.9238C38.2505 37.6665 37.296 37.5187 36.4348 36.5289L31.182 30.4907C30.3209 29.5009 30.3067 28.5351 31.1605 27.7923C32.0266 27.0389 32.9935 27.1759 33.8546 28.1657L39.1075 34.2039C39.9686 35.1937 39.9704 36.1703 39.1043 36.9238Z" fill="white"/>
<path d="M49.3973 30.7301C48.0193 31.2591 46.9646 30.8912 46.0597 29.8156L41.0166 23.8643C39.794 22.4188 40.4506 21.2005 41.4457 20.8184C42.4409 20.4363 43.1613 20.757 44.1249 21.9856L47.2311 25.9578C47.6382 26.469 47.9371 26.8813 48.1547 27.2194C48.0749 26.8284 48.021 26.3221 47.9755 25.6544L47.6157 20.6454C47.5035 19.0722 47.8454 18.3612 48.764 18.0085C49.7133 17.6441 51.0471 18.0981 51.0907 19.9962L51.2499 27.8228C51.282 29.2334 50.7599 30.2069 49.3973 30.7301Z" fill="white"/>
<path d="M60.2083 28.4683C56.7682 28.6309 54.1276 26.6049 53.9432 22.7061C53.7589 18.8073 56.1966 16.5412 59.6368 16.3786C63.0933 16.2152 65.8533 18.334 66.0329 22.1346C66.2126 25.9351 63.6649 28.3049 60.2083 28.4683ZM57.6455 22.5311C57.7431 24.5952 58.6765 25.5854 60.0689 25.5196C61.4614 25.4537 62.4283 24.3737 62.3307 22.3096C62.2323 20.2291 61.1686 19.2615 59.7762 19.3273C58.3837 19.3931 57.5472 20.4506 57.6455 22.5311Z" fill="white"/>
<path d="M70.9021 29.6252C69.8093 29.3312 69.3993 28.4566 69.7402 27.1897L71.5002 20.6491L69.5998 20.1377C68.5388 19.8522 68.0733 19.1835 68.3205 18.265C68.5677 17.3465 69.3101 16.9858 70.3711 17.2713L77.561 19.206C78.622 19.4915 79.0832 20.1761 78.836 21.0946C78.5889 22.0131 77.8507 22.358 76.7897 22.0724L74.9209 21.5696L73.1609 28.1101C72.82 29.3771 72.0106 29.9235 70.9021 29.6252Z" fill="white"/>
<path d="M77.439 31.6594C76.466 31.0815 76.3071 30.1288 76.9771 29.0007L80.7457 22.6555C81.4157 21.5275 82.3284 21.2112 83.3013 21.789L88.0532 24.6113C88.9979 25.1724 89.2573 25.956 88.7716 26.7738C88.2859 27.5916 87.4821 27.7246 86.5373 27.1635L83.3224 25.2541L82.6273 26.4244L85.673 28.2334C86.5755 28.7693 86.8151 29.522 86.3545 30.2976C85.8939 31.0731 85.1266 31.2087 84.1537 30.6309L81.1785 28.8638L80.4918 30.02L83.9464 32.0719C84.8911 32.633 85.1506 33.4165 84.6648 34.2343C84.1791 35.0522 83.3753 35.1851 82.4306 34.624L77.439 31.6594Z" fill="white"/>
<path d="M85.4036 37.0048C84.6414 36.1684 84.767 35.2107 85.7367 34.3269L91.1911 29.3556C92.1608 28.4719 93.126 28.4353 93.8883 29.2717L95.8547 31.4292C98.5944 34.4352 98.7924 37.4279 95.9198 40.0461C93.435 42.3108 90.2203 42.2895 87.3148 39.1017L85.4036 37.0048ZM88.8017 36.3264L89.3209 36.8961C90.4588 38.1445 91.8474 38.7429 93.4231 37.3068C94.7443 36.1026 94.8871 34.7742 93.5062 33.2591L92.8986 32.5924L88.8017 36.3264Z" fill="white"/>
<path d="M95.1872 53.513C94.2434 50.2009 95.6128 47.1674 99.3666 46.0977C103.12 45.028 105.883 46.8839 106.827 50.196C107.775 53.5239 106.343 56.6948 102.684 57.7375C99.0245 58.7803 96.1356 56.8409 95.1872 53.513ZM100.382 49.6622C98.3951 50.2285 97.6442 51.3634 98.0262 52.704C98.4082 54.0446 99.6805 54.7393 101.668 54.173C103.671 53.6022 104.37 52.3457 103.988 51.005C103.606 49.6644 102.385 49.0914 100.382 49.6622Z" fill="white"/>
<path d="M96.6818 61.1262C96.7369 60.0452 97.472 59.4751 98.7332 59.5393L106.005 59.9096C107.692 59.9955 108.796 61.2176 108.711 62.8882C108.636 64.3623 107.756 65.1878 106.15 65.7793L101.53 67.4982C102.107 67.4619 102.566 67.4689 103.172 67.4997L106.499 67.6363C107.761 67.6841 108.433 68.3424 108.378 69.4234C108.322 70.5207 107.586 71.1073 106.325 71.043L98.6591 70.6691C97.2014 70.5949 96.2532 69.5449 96.3266 68.1036C96.3916 66.826 97.149 66.1421 98.5393 65.6053L104.888 63.1533C104.393 63.1938 103.983 63.1894 103.246 63.1518L98.5597 62.9461C97.2977 62.8982 96.626 62.2236 96.6818 61.1262Z" fill="white"/>
<path d="M94.2063 76.1554C94.6818 75.2567 95.9777 74.7363 97.2586 76.1377L102.532 81.9155C103.484 82.9572 103.669 84.1499 102.987 85.44C102.296 86.7446 101.214 87.2479 99.817 87.047L92.0735 85.9369C90.1943 85.6662 89.8956 84.3021 90.3711 83.4033C90.839 82.5191 91.6072 82.2947 93.1266 82.5791L93.587 82.6558L95.4125 79.2058L95.0901 78.8682C93.9858 77.7643 93.7461 77.0252 94.2063 76.1554ZM97.4916 81.3078L96.4944 83.1923L98.5911 83.5781C99.2339 83.6956 99.7378 83.7952 100.124 83.9068C99.8069 83.6648 99.4487 83.2897 98.9754 82.8166L97.4916 81.3078Z" fill="white"/>
<path d="M88.841 85.5166C89.6192 84.6951 90.5836 84.7502 91.536 85.6525L97.1198 90.9424C98.0722 91.8447 98.1794 92.8047 97.4011 93.6262C96.6116 94.4596 95.6359 94.4163 94.6835 93.514L89.7665 88.8558L87.24 91.5226C86.4843 92.3203 85.6747 92.4118 84.9842 91.7576C84.2937 91.1034 84.3294 90.2788 85.0851 89.4811L88.841 85.5166Z" fill="white"/>
<path d="M82.422 91.5317C83.3792 90.9282 84.2999 91.22 84.9997 92.3298L89.1022 98.836C89.802 99.9458 89.6684 100.902 88.7112 101.506C87.7402 102.118 86.8055 101.835 86.1057 100.725L82.4931 94.9961L79.3857 96.9555C78.4562 97.5415 77.6492 97.43 77.1418 96.6254C76.6345 95.8208 76.873 95.0306 77.8024 94.4446L82.422 91.5317Z" fill="white"/>
<path d="M68.0487 97.2512C69.1623 97.0503 69.9066 97.666 70.1395 98.9572L71.3417 105.623L73.2784 105.274C74.3598 105.079 75.0663 105.484 75.2351 106.42C75.4039 107.357 74.8867 108 73.8053 108.195L66.4779 109.516C65.3966 109.711 64.6872 109.289 64.5184 108.353C64.3496 107.417 64.8697 106.79 65.9511 106.595L67.8555 106.252L66.6534 99.5859C66.4205 98.2948 66.9189 97.4549 68.0487 97.2512Z" fill="white"/>
<path d="M61.3053 97.981C62.4292 98.1124 62.9625 98.9177 62.8102 100.221L61.8809 108.17C61.7285 109.473 61.0239 110.134 59.8999 110.002C58.7597 109.869 58.2101 109.062 58.3625 107.759L58.6519 105.283L55.1986 104.879L54.9092 107.355C54.7568 108.658 54.0521 109.319 52.9282 109.187C51.788 109.054 51.2384 108.247 51.3907 106.944L52.32 98.9945C52.4724 97.6914 53.1933 97.0326 54.3336 97.1659C55.4575 97.2973 55.9908 98.1027 55.8385 99.4058L55.5433 101.931L58.9966 102.334L59.2917 99.8095C59.4441 98.5064 60.1651 97.8477 61.3053 97.981Z" fill="white"/>
<path d="M50.3188 96.2862C51.356 96.7388 51.632 97.6645 51.1073 98.867L48.1559 105.631C47.6312 106.834 46.7649 107.261 45.7277 106.808L40.6621 104.598C39.655 104.158 39.3003 103.413 39.6807 102.541C40.0611 101.67 40.8422 101.438 41.8493 101.877L45.2764 103.373L45.8208 102.125L42.574 100.708C41.612 100.289 41.2808 99.5715 41.6415 98.7447C42.0022 97.918 42.7467 97.6881 43.7838 98.1407L46.9555 99.5246L47.4933 98.292L43.8106 96.6851C42.8035 96.2457 42.4487 95.5004 42.8291 94.6286C43.2095 93.7568 43.9906 93.525 44.9977 93.9644L50.3188 96.2862Z" fill="white"/>
<path d="M39.1812 89.6116C39.9626 90.4301 39.8592 91.3905 38.9102 92.2964L33.347 97.6078C32.398 98.5138 31.4339 98.5727 30.6525 97.7542L28.161 95.1446C26.4509 93.3534 25.7131 91.1556 27.7415 89.219C29.7699 87.2825 31.9193 88.1326 33.6294 89.9238L34.8864 91.2405L36.4641 89.7343C37.413 88.8283 38.3885 88.7813 39.1812 89.6116ZM32.8224 93.211L31.7013 92.0367C31.1237 91.4317 30.6368 91.4204 30.2216 91.8168C29.8302 92.1905 29.738 92.664 30.3609 93.3164L31.482 94.4907L32.8224 93.211Z" fill="white"/>
<path d="M32.388 81.7047C32.8909 82.6817 32.527 83.5514 31.3896 84.1369L24.507 87.6795C23.3405 88.2799 22.3991 88.0636 21.8812 87.0574L20.0574 83.5141C18.9991 81.458 19.0343 79.4479 21.0174 78.4271C22.461 77.6841 23.7512 78.2558 24.5908 79.1701C24.119 77.716 24.6291 76.8079 25.8832 76.1624L26.9331 75.622C28.1142 75.014 29.0631 75.245 29.596 76.2803C30.1138 77.2864 29.7429 78.1783 28.5618 78.7862L27.7889 79.184C26.8849 79.6494 26.8184 80.2369 27.2687 81.1118L27.7866 82.118L29.8135 81.0747C30.9508 80.4893 31.8776 80.7131 32.388 81.7047ZM25.3077 83.3939L24.6097 82.0378C24.2644 81.3671 23.8197 80.9688 23.1489 81.3141C22.5073 81.6443 22.6021 82.2227 22.9549 82.908L23.6454 84.2495L25.3077 83.3939Z" fill="white"/>
<path d="M27.5769 68.5048C28.1013 71.9086 26.365 74.7481 22.5073 75.3424C18.6496 75.9367 16.1392 73.7514 15.6149 70.3476C15.088 66.9275 16.9041 63.9596 20.6645 63.3803C24.4249 62.801 27.0501 65.0847 27.5769 68.5048ZM21.943 71.6792C23.9853 71.3646 24.8716 70.332 24.6594 68.9542C24.4471 67.5765 23.2711 66.7289 21.2288 67.0435C19.1703 67.3606 18.3202 68.5204 18.5324 69.8981C18.7447 71.2759 19.8845 71.9963 21.943 71.6792Z" fill="white"/>
<path d="M27.0443 61.1865C26.872 62.3049 26.0477 62.8085 24.751 62.6087L17.1491 61.4376C15.8524 61.2379 15.2178 60.5096 15.3901 59.3911L15.9395 55.8252C16.3165 53.3777 17.6087 51.4528 20.3804 51.8798C23.1521 52.3068 23.7888 54.5288 23.4117 56.9764L23.1346 58.7755L25.2903 59.1076C26.587 59.3074 27.2191 60.0519 27.0443 61.1865ZM20.3142 58.341L20.5614 56.7364C20.6888 55.9097 20.4009 55.5169 19.8335 55.4295C19.2987 55.3471 18.8672 55.5627 18.7299 56.4542L18.4826 58.0589L20.3142 58.341Z" fill="white"/>
<path d="M30.2398 48.7998C29.514 50.3975 28.499 51.5215 27.1825 52.0402C25.3734 52.7314 23.9873 51.1831 24.6114 49.8094C24.9573 49.0479 25.6291 48.7587 26.2657 48.7056C26.9022 48.6525 27.3704 48.2168 27.6825 47.5299C28.0013 46.8281 27.9821 46.1169 27.4446 45.8727C27.0415 45.6896 26.7049 45.915 26.3141 46.4579L25.2951 47.8684C24.1227 49.4973 22.6381 50.6241 20.697 49.7423C18.5469 48.7655 18.108 46.2424 19.2815 43.6593C20.0481 41.972 21.1405 40.9552 21.9005 40.67C23.6594 40.0101 24.9993 41.5014 24.3888 42.8453C24.0564 43.5769 23.4335 43.7983 22.7915 43.9029C22.383 43.9695 22.0138 44.3062 21.7425 44.9034C21.4305 45.5902 21.4835 46.2268 21.9464 46.4371C22.3495 46.6202 22.6684 46.3148 23.142 45.6293L23.9914 44.394C25.0634 42.8275 26.5805 41.5894 28.6859 42.5458C30.6867 43.4548 31.6643 45.6642 30.2398 48.7998Z" fill="white"/>
<defs>
<linearGradient id="paint0_linear_1009_5479" x1="61.5" y1="5" x2="61.5" y2="118" gradientUnits="userSpaceOnUse">
<stop stop-color="#FF3E3E"/>
<stop offset="1" stop-color="#FFD43E"/>
</linearGradient>
<linearGradient id="paint1_linear_1009_5479" x1="61.5" y1="5" x2="61.5" y2="118" gradientUnits="userSpaceOnUse">
<stop stop-color="#FF3E3E"/>
<stop offset="1" stop-color="#FFD43E"/>
</linearGradient>
<linearGradient id="paint2_linear_1009_5479" x1="61.5" y1="0" x2="61.5" y2="123" gradientUnits="userSpaceOnUse">
<stop stop-color="#FFFBD7"/>
<stop offset="1" stop-color="#FFEAEA"/>
</linearGradient>
</defs>
</svg>
