<svg width="48" height="48" viewBox="0 0 48 48" fill="none" xmlns="http://www.w3.org/2000/svg">
<rect width="48" height="48" rx="24" fill="url(#paint0_radial_123_2487)"/>
<path fill-rule="evenodd" clip-rule="evenodd" d="M13.1005 16C13.5945 16 14.0203 16.3474 14.1196 16.8313L14.6705 19.5173L17.3683 20.0668C17.8529 20.1655 18.201 20.5916 18.201 21.0862C18.201 21.5807 17.8529 22.0068 17.3683 22.1055L14.6705 22.655L14.1196 25.341C14.0203 25.8249 13.5945 26.1723 13.1005 26.1723C12.6065 26.1723 12.1807 25.8249 12.0814 25.341L11.5305 22.655L8.83269 22.1055C8.34812 22.0068 8 21.5807 8 21.0862C8 20.5916 8.34812 20.1655 8.83269 20.0668L11.5305 19.5173L12.0814 16.8313C12.1807 16.3474 12.6065 16 13.1005 16Z" fill="white"/>
<path fill-rule="evenodd" clip-rule="evenodd" d="M34.7503 16C35.2442 16 35.6701 16.3474 35.7693 16.8313L36.3203 19.5173L39.0181 20.0668C39.5026 20.1655 39.8508 20.5916 39.8508 21.0862C39.8508 21.5807 39.5026 22.0068 39.0181 22.1055L36.3203 22.655L35.7693 25.341C35.6701 25.8249 35.2442 26.1723 34.7503 26.1723C34.2563 26.1723 33.8304 25.8249 33.7312 25.341L33.1802 22.655L30.4824 22.1055C29.9979 22.0068 29.6498 21.5807 29.6498 21.0862C29.6498 20.5916 29.9979 20.1655 30.4824 20.0668L33.1802 19.5173L33.7312 16.8313C33.8304 16.3474 34.2563 16 34.7503 16Z" fill="white"/>
<path fill-rule="evenodd" clip-rule="evenodd" d="M18.4841 27.0281C18.4841 26.2306 19.1314 25.5846 19.9283 25.5846C20.7251 25.5846 21.3724 26.2306 21.3724 27.0281C21.3724 28.178 22.3065 29.1129 23.462 29.1129C24.6176 29.1129 25.5516 28.178 25.5516 27.0281C25.5516 26.2306 26.1989 25.5846 26.9958 25.5846C27.7926 25.5846 28.4399 26.2306 28.4399 27.0281C28.4399 29.7756 26.2098 32 23.462 32C20.7143 32 18.4841 29.7756 18.4841 27.0281Z" fill="white"/>
<path d="M12.9414 16.6584L13.6682 20.202L17.2244 20.9263L13.6682 21.6506L12.9414 25.1941L12.2146 21.6506L8.65843 20.9263L12.2146 20.202L12.9414 16.6584Z" fill="white"/>
<path fill-rule="evenodd" clip-rule="evenodd" d="M12.9414 16C13.254 16 13.5236 16.2199 13.5864 16.5261L14.2258 19.6436L17.3558 20.2811C17.6625 20.3435 17.8828 20.6133 17.8828 20.9263C17.8828 21.2393 17.6625 21.509 17.3558 21.5715L14.2258 22.2089L13.5864 25.3264C13.5236 25.6327 13.254 25.8525 12.9414 25.8525C12.6288 25.8525 12.3592 25.6327 12.2964 25.3264L11.6569 22.2089L8.52703 21.5715C8.22033 21.509 8 21.2393 8 20.9263C8 20.6133 8.22033 20.3435 8.52703 20.2811L11.6569 19.6436L12.2964 16.5261C12.3592 16.2199 12.6288 16 12.9414 16ZM12.9414 19.9353L12.8596 20.3343C12.8066 20.5927 12.6044 20.7945 12.346 20.8472L11.9577 20.9263L12.346 21.0054C12.6044 21.058 12.8066 21.2598 12.8596 21.5182L12.9414 21.9172L13.0232 21.5182C13.0762 21.2598 13.2784 21.058 13.5368 21.0054L13.9251 20.9263L13.5368 20.8472C13.2784 20.7945 13.0762 20.5927 13.0232 20.3343L12.9414 19.9353Z" fill="white"/>
<path d="M35.779 16.6584L36.5059 20.202L40.062 20.9263L36.5059 21.6506L35.779 25.1941L35.0522 21.6506L31.4961 20.9263L35.0522 20.202L35.779 16.6584Z" fill="white"/>
<path fill-rule="evenodd" clip-rule="evenodd" d="M35.779 16C36.0917 16 36.3612 16.2199 36.4241 16.5261L37.0635 19.6436L40.1934 20.2811C40.5001 20.3435 40.7204 20.6133 40.7204 20.9263C40.7204 21.2393 40.5001 21.509 40.1934 21.5715L37.0635 22.2089L36.4241 25.3264C36.3612 25.6327 36.0917 25.8525 35.779 25.8525C35.4664 25.8525 35.1969 25.6327 35.134 25.3264L34.4946 22.2089L31.3647 21.5715C31.058 21.509 30.8376 21.2393 30.8376 20.9263C30.8376 20.6133 31.058 20.3435 31.3647 20.2811L34.4946 19.6436L35.134 16.5261C35.1969 16.2199 35.4664 16 35.779 16ZM35.779 19.9353L35.6972 20.3343C35.6442 20.5927 35.4421 20.7945 35.1836 20.8472L34.7953 20.9263L35.1836 21.0054C35.4421 21.058 35.6442 21.2598 35.6972 21.5182L35.779 21.9172L35.8609 21.5182C35.9139 21.2598 36.116 21.058 36.3745 21.0054L36.7628 20.9263L36.3745 20.8472C36.116 20.7945 35.9139 20.5927 35.8609 20.3343L35.779 19.9353Z" fill="white"/>
<path d="M19.7178 27.1943C19.7178 29.4848 21.5774 31.3416 23.8714 31.3416C26.1655 31.3416 28.0251 29.4848 28.0251 27.1943C28.0251 26.9598 27.8344 26.7689 27.5991 26.7689C27.3638 26.7689 27.1731 26.9598 27.1731 27.1943C27.1731 29.0149 25.6949 30.4909 23.8714 30.4909C22.048 30.4909 20.5698 29.0149 20.5698 27.1943C20.5698 26.9598 20.3791 26.7689 20.1438 26.7689C19.9085 26.7689 19.7178 26.9598 19.7178 27.1943Z" fill="white"/>
<path fill-rule="evenodd" clip-rule="evenodd" d="M19.0593 27.1943C19.0593 26.5957 19.5453 26.1105 20.1438 26.1105C20.7423 26.1105 21.2282 26.5957 21.2282 27.1943C21.2282 28.6503 22.4107 29.8324 23.8715 29.8324C25.3322 29.8324 26.5146 28.6503 26.5146 27.1943C26.5146 26.5957 27.0006 26.1105 27.5991 26.1105C28.1976 26.1105 28.6835 26.5957 28.6835 27.1943C28.6835 29.8494 26.5282 32 23.8715 32C21.2148 32 19.0593 29.8494 19.0593 27.1943Z" fill="white"/>
<defs>
<radialGradient id="paint0_radial_123_2487" cx="0" cy="0" r="1" gradientUnits="userSpaceOnUse" gradientTransform="rotate(45) scale(67.8823 37090.2)">
<stop stop-color="#F3CF00"/>
<stop offset="1" stop-color="#FF0420"/>
</radialGradient>
</defs>
</svg>
